<svg id="Layer_1" data-name="Layer 1" xmlns="http://www.w3.org/2000/svg" viewBox="0 0 100 100"><defs><style>.cls-1{fill:#ba3429;}.cls-2{fill:#f38785;}.cls-3{fill:#e6e6e6;}</style></defs><path class="cls-1" d="M62.09,39.67V9.51a7,7,0,0,0-7-7H44.92a7,7,0,0,0-7,7V40a49.38,49.38,0,0,1,12.73-1.58A50.38,50.38,0,0,1,62.09,39.67Z"/><path class="cls-1" d="M30.12,85.24V91.5a6,6,0,0,0,6,6H63.88a6,6,0,0,0,6-6V85.24A84.88,84.88,0,0,1,50,87.42,84.88,84.88,0,0,1,30.12,85.24Z"/><path class="cls-2" d="M58.47,42H41.53A11.41,11.41,0,0,0,30.12,53.39V85.24A84.88,84.88,0,0,0,50,87.42a84.88,84.88,0,0,0,19.88-2.18V53.39A11.41,11.41,0,0,0,58.47,42Z"/><path class="cls-3" d="M62.09,39.65v2.9A11.35,11.35,0,0,0,58.47,42H41.53a11.35,11.35,0,0,0-3.62.58V40a49.82,49.82,0,0,1,12.73-1.58A51,51,0,0,1,62.09,39.65Z"/><path class="cls-3" d="M69.88,54.74c0,.62-.69,1.42-1.95,2.24a25.71,25.71,0,0,1-5.24,2.44A42.1,42.1,0,0,1,50,62a43.36,43.36,0,0,0-13,2.59,26.7,26.7,0,0,0-5.45,2.55c-1.6,1.05-2.41,2.08-2.41,3.09h1c0-.62.69-1.42,1.95-2.24a25.71,25.71,0,0,1,5.24-2.44A42.1,42.1,0,0,1,50,63a43.36,43.36,0,0,0,13-2.59,26.7,26.7,0,0,0,5.45-2.55c1.6-1,2.41-2.09,2.41-3.09Z"/><path class="cls-3" d="M69.88,61.39c0,.62-.69,1.42-1.95,2.24a25.71,25.71,0,0,1-5.24,2.44A42.1,42.1,0,0,1,50,68.61,43.36,43.36,0,0,0,37,71.2a26.7,26.7,0,0,0-5.45,2.55c-1.6,1-2.41,2.08-2.41,3.09h1c0-.62.69-1.42,1.95-2.24a25.71,25.71,0,0,1,5.24-2.44A42.1,42.1,0,0,1,50,69.62,43.36,43.36,0,0,0,63,67a26.7,26.7,0,0,0,5.45-2.55c1.6-1.05,2.41-2.09,2.41-3.09Z"/></svg>